<?xml version="1.0" encoding="UTF-8" standalone="no"?>
<!-- Created with qrencode 4.0.2 (https://fukuchi.org/works/qrencode/index.html) -->

<svg
   xmlns:dc="http://purl.org/dc/elements/1.1/"
   xmlns:cc="http://creativecommons.org/ns#"
   xmlns:rdf="http://www.w3.org/1999/02/22-rdf-syntax-ns#"
   xmlns:svg="http://www.w3.org/2000/svg"
   xmlns="http://www.w3.org/2000/svg"
   xmlns:sodipodi="http://sodipodi.sourceforge.net/DTD/sodipodi-0.dtd"
   xmlns:inkscape="http://www.inkscape.org/namespaces/inkscape"
   width="3.0724223cm"
   height="3.0724223cm"
   viewBox="0 0 28.999903 28.999903"
   preserveAspectRatio="none"
   version="1.1"
   id="svg878"
   sodipodi:docname="doi.svg"
   inkscape:version="0.92.4 (5da689c313, 2019-01-14)">
  <metadata
     id="metadata884">
    <rdf:RDF>
      <cc:Work
         rdf:about="">
        <dc:format>image/svg+xml</dc:format>
        <dc:type
           rdf:resource="http://purl.org/dc/dcmitype/StillImage" />
      </cc:Work>
    </rdf:RDF>
  </metadata>
  <defs
     id="defs882" />
  <sodipodi:namedview
     pagecolor="#ffffff"
     bordercolor="#666666"
     borderopacity="1"
     objecttolerance="10"
     gridtolerance="10"
     guidetolerance="10"
     inkscape:pageopacity="0"
     inkscape:pageshadow="2"
     inkscape:window-width="1920"
     inkscape:window-height="1024"
     id="namedview880"
     showgrid="false"
     inkscape:zoom="1.5928996"
     inkscape:cx="-14.762006"
     inkscape:cy="58.061879"
     inkscape:window-x="0"
     inkscape:window-y="28"
     inkscape:window-maximized="1"
     inkscape:current-layer="svg878" />
  <path
     style="fill:#000000;stroke-width:1"
     d="M 0,0 V 0.9999125 1.9998253 2.9997378 3.9996503 5.0000505 5.9999632 6.9998757 H 0.9999125 1.9998253 2.9997378 3.9996503 5.0000505 5.9999632 6.9998757 V 5.9999632 5.0000505 3.9996503 2.9997378 1.9998253 0.9999125 0 H 5.9999632 5.0000505 3.9996503 2.9997378 1.9998253 0.9999125 Z M 7.9997882,0 V 0.9999125 1.9998253 H 8.999701 V 0.9999125 h 1.0004 0.999913 v 0.9999128 h 0.999912 V 0.9999125 0 h -0.999912 -0.999913 -1.0004 z M 8.999701,1.9998253 v 0.9999125 h 1.0004 V 1.9998253 Z M 12.999839,0 v 0.9999125 h 0.999912 0.999913 v 0.9999128 h 1.0004 V 0.9999125 0 h -1.0004 -0.999913 z m 5.999963,0 v 0.9999125 0.9999128 0.9999125 0.9999125 1.0004002 0.9999127 h 0.999912 V 5.0000505 3.9996503 2.9997378 1.9998253 h 0.999913 V 0.9999125 0 h -0.999913 z m 0.999912,5.9999632 v 0.9999125 h 0.999913 V 5.9999632 Z m -0.999912,0 H 17.999889 V 6.9998757 7.9997882 8.999701 h -0.999912 v 1.0004 h -0.999913 -1.0004 -0.999913 -0.999912 v -1.0004 h 0.999912 V 7.9997882 6.9998757 H 12.999839 V 7.9997882 H 11.999926 11.000014 V 8.999701 h 0.999912 v 1.0004 0.999913 H 11.000014 V 10.000101 H 10.000101 8.999701 7.9997882 6.9998757 5.9999632 v 0.999913 h 0.9999125 v 0.999912 h 0.9999125 v -0.999912 h 0.9999128 1.0004 v 0.999912 h -1.0004 v 0.999913 h 1.0004 v 0.999912 h 0.999913 v -0.999912 -0.999913 h 0.999912 0.999913 v -0.999912 h 0.999912 v 0.999912 h -0.999912 v 0.999913 0.999912 h 0.999912 0.999913 v -0.999912 h 1.0004 0.999913 v 0.999912 h 0.999912 v 0.999913 h 0.999913 0.999912 v -0.999913 h -0.999912 v -0.999912 h -0.999913 v -0.999913 h -0.999912 -0.999913 -1.0004 v -0.999912 h 1.0004 0.999913 0.999912 0.999913 v 0.999912 0.999913 h 0.999912 v 0.999912 h 0.999913 v 0.999913 h 1.000401 v 1.0004 0.999913 0.999912 0.999913 h -1.000401 v 0.999912 h -0.999913 -0.999912 v 0.999913 h -0.999913 v -0.999913 -0.999912 -0.999913 -0.999912 -0.999913 -1.0004 h -0.999912 -0.999913 v 1.0004 h -1.0004 v 0.999913 h 1.0004 0.999913 v 0.999912 h -0.999913 v 0.999913 h 0.999913 v 0.999912 h -0.999913 v 0.999913 h -1.0004 v -0.999913 -0.999912 -0.999913 h -0.999913 -0.999912 v -0.999912 h 0.999912 v -0.999913 -1.0004 h -0.999912 v 1.0004 h -0.999913 -0.999912 v 0.999913 h 0.999912 v 0.999912 0.999913 h -0.999912 v 0.999912 h 0.999912 0.999913 v -0.999912 h 0.999912 v 0.999912 h -0.999912 v 0.999913 1.000401 h 0.999912 0.999913 v 0.999911 h 1.0004 v -0.999911 h 0.999913 v 0.999911 h 0.999912 v 0.999913 h -0.999912 -0.999913 -1.0004 v 0.999914 0.999911 h -0.999913 -0.999912 v -0.999911 h 0.999912 v -0.999914 -0.999913 h -0.999912 v 0.999913 h -0.999913 -0.999912 v -0.999913 h 0.999912 v -0.999911 h -0.999912 v -1.000401 -0.999913 h -0.999913 v 0.999913 1.000401 0.999911 h -1.0004 -0.9999128 v 0.999913 H 8.999701 v 0.999914 h 1.0004 v 0.999911 h 0.999913 v -0.999911 h 0.999912 v 0.999911 1.0004 h -0.999912 -0.999913 -1.0004 v -1.0004 H 7.9997882 v 1.0004 0.999914 0.999911 H 8.999701 v -0.999911 h 1.0004 v 0.999911 h 0.999913 v -0.999911 h 0.999912 0.999913 v -0.999914 h 0.999912 v 0.999914 h -0.999912 v 0.999911 h 0.999912 0.999913 1.0004 0.999913 v -0.999911 -0.999914 h -0.999913 v -1.0004 h 0.999913 v -0.999911 h 0.999912 v 0.999911 h -0.999912 v 1.0004 h 0.999912 0.999913 v -1.0004 h 0.999912 v 1.0004 h 0.999913 1.000401 v -1.0004 h -1.000401 v -0.999911 h 1.000401 0.999911 0.999913 v 0.999911 1.0004 h 0.999914 v -1.0004 h 0.999911 1.0004 v -0.999911 h -1.0004 v -0.999914 h -0.999911 v -0.999913 -0.999911 h 0.999911 1.0004 v -1.000401 h -1.0004 v -0.999913 h -0.999911 v -0.999912 h -0.999914 -0.999913 v -0.999913 h 0.999913 v -0.999912 -0.999913 h -0.999913 v -1.0004 -0.999913 -0.999912 h 0.999913 v -0.999913 h 0.999914 0.999911 v -0.999912 h 1.0004 v -0.999913 h -1.0004 -0.999911 v 0.999913 h -0.999914 v -0.999913 -1.0004 h 0.999914 V 7.9997882 H 23.999852 22.999939 22.000028 20.999627 19.999714 V 8.999701 h 0.999913 1.000401 v 1.0004 h 0.999911 v 0.999913 h -0.999911 -1.000401 v 0.999912 h 1.000401 v 0.999913 h -1.000401 v -0.999913 h -0.999913 v -0.999912 h 0.999913 v -0.999913 h -0.999913 v -1.0004 H 18.999802 V 7.9997882 6.9998757 Z m 8.000275,4.0001378 h 0.999914 v 0.999913 h 0.999911 V 10.000101 8.999701 7.9997882 H 27.999991 27.000077 V 8.999701 Z m -3.000225,5.999963 h 0.999914 v -1.0004 -0.999913 h -0.999914 v 0.999913 z m 0.999914,2.999738 h 0.999911 v -0.999913 h -0.999911 z m 0.999911,-0.999913 h 1.0004 0.999914 v 0.999913 h 0.999911 v -0.999913 -0.999912 -0.999913 h -0.999911 v 0.999913 h -0.999914 -1.0004 z m 1.0004,2.999738 h 0.999914 v -0.999913 h -0.999914 z m 0.999914,0 v 1.000401 0.999911 h -0.999914 v 0.999913 h 0.999914 0.999911 v -0.999913 -0.999911 -1.000401 z m -0.999914,5.00005 v 1.0004 h 0.999914 0.999911 v -1.0004 h -0.999911 z m -2.000311,1.0004 v 0.999914 h -0.999914 v 0.999911 h 0.999914 0.999911 v -0.999911 -0.999914 z m -5.000052,0 h -0.999912 v 0.999914 h 0.999912 z m -0.999912,0.999914 h -0.999913 v 0.999911 h 0.999913 z m -7.999788,-9.000189 v -0.999913 -0.999912 h -0.999913 -1.0004 v 0.999912 H 7.9997882 V 16.999977 H 8.999701 v -0.999913 h 1.0004 0.999913 v -1.0004 H 10.000101 8.999701 7.9997882 V 13.999751 H 6.9998757 5.9999632 V 12.999839 H 5.0000505 v 0.999912 H 3.9996503 V 12.999839 H 2.9997378 v 0.999912 H 1.9998253 0.9999125 V 12.999839 H 1.9998253 2.9997378 V 11.999926 H 1.9998253 V 11.000014 H 0.9999125 0 v 0.999912 0.999913 0.999912 0.999913 h 0.9999125 0.9999128 0.9999125 v 1.0004 H 1.9998253 0.9999125 v 0.999913 h 0.9999128 0.9999125 0.9999125 1.0004002 v -0.999913 -1.0004 h 0.9999127 0.9999125 v 1.0004 H 5.9999632 v 0.999913 h 0.9999125 v 0.999912 H 5.9999632 v 0.999913 h 0.9999125 0.9999125 v 0.999912 0.999913 1.000401 H 8.999701 v -1.000401 -0.999913 -0.999912 h 1.0004 z M 5.9999632,17.999889 V 16.999977 H 5.0000505 v 0.999912 z m -0.9999127,0 H 3.9996503 v 0.999913 H 5.0000505 Z M 1.9998253,11.000014 H 2.9997378 3.9996503 5.0000505 V 10.000101 H 3.9996503 2.9997378 1.9998253 Z m 3.0002252,-0.999913 h 0.9999127 v -1.0004 H 6.9998757 V 7.9997882 H 5.9999632 5.0000505 V 8.999701 Z M 3.9996503,12.999839 H 5.0000505 V 11.999926 H 3.9996503 Z m 2.0003129,0 H 6.9998757 V 11.999926 H 5.9999632 Z m 5.0000508,1.999825 h 0.999912 v -0.999913 h -0.999912 z m 5.00005,0 v -0.999913 h -1.0004 v 0.999913 z m 4.999563,4.000138 v -0.999913 h -0.999913 -0.999912 v 0.999913 h 0.999912 z m 0,-4.000138 h -0.999913 v 1.0004 h -0.999912 v 0.999913 h 0.999912 0.999913 V 16.000064 Z M 12.999839,6.9998757 V 5.9999632 h 0.999912 v 0.9999125 h 0.999913 V 5.9999632 5.0000505 H 13.999751 12.999839 V 3.9996503 2.9997378 h -0.999913 -0.999912 v 0.9999125 1.0004002 h 0.999912 V 5.9999632 6.9998757 Z M 11.000014,5.0000505 h -0.999913 -1.0004 V 3.9996503 H 7.9997882 V 5.0000505 5.9999632 6.9998757 7.9997882 8.999701 h 0.9999128 1.0004 V 7.9997882 6.9998757 h -1.0004 V 5.9999632 h 1.0004 v 0.9999125 h 0.999913 V 5.9999632 Z m 1.999825,-2.0003127 h 0.999912 V 1.9998253 h -0.999912 z m 1.999825,2.0003127 h 1.0004 0.999913 v 0.9999127 h 0.999912 V 5.0000505 3.9996503 2.9997378 1.9998253 H 16.999977 V 2.9997378 3.9996503 H 16.000064 V 2.9997378 h -1.0004 v 0.9999125 z m 2.000313,0.9999127 h -0.999913 v 0.9999125 h 0.999913 z m 0,2.9997378 V 7.9997882 h -0.999913 -1.0004 V 8.999701 h 1.0004 z M 22.000028,0 v 0.9999125 0.9999128 0.9999125 0.9999125 1.0004002 0.9999127 0.9999125 h 0.999911 0.999913 0.999914 0.999911 1.0004 0.999914 0.999911 V 5.9999632 5.0000505 3.9996503 2.9997378 1.9998253 0.9999125 0 h -0.999911 -0.999914 -1.0004 -0.999911 -0.999914 -0.999913 z M 0.9999125,0.9999125 H 1.9998253 2.9997378 3.9996503 5.0000505 5.9999632 V 1.9998253 2.9997378 3.9996503 5.0000505 5.9999632 H 5.0000505 3.9996503 2.9997378 1.9998253 0.9999125 V 5.0000505 3.9996503 2.9997378 1.9998253 Z m 22.0000265,0 h 0.999913 0.999914 0.999911 1.0004 0.999914 v 0.9999128 0.9999125 0.9999125 1.0004002 0.9999127 h -0.999914 -1.0004 -0.999911 -0.999914 -0.999913 V 5.0000505 3.9996503 2.9997378 1.9998253 Z M 1.9998253,1.9998253 V 2.9997378 3.9996503 5.0000505 H 2.9997378 3.9996503 5.0000505 V 3.9996503 2.9997378 1.9998253 H 3.9996503 2.9997378 Z m 22.0000267,0 v 0.9999125 0.9999125 1.0004002 h 0.999914 0.999911 1.0004 V 3.9996503 2.9997378 1.9998253 h -1.0004 -0.999911 z M 0,7.9997882 v 0.9999128 1.0004 h 0.9999125 v -1.0004 H 1.9998253 2.9997378 V 7.9997882 H 1.9998253 0.9999125 Z m 27.999991,4.0001378 v 0.999913 h -0.999914 v 0.999912 h 0.999914 v 0.999913 h 0.999911 V 13.999751 12.999839 11.999926 Z M 0,17.999889 v 0.999913 H 0.9999125 1.9998253 V 17.999889 H 0.9999125 Z m 0,1.999825 v 0.999913 H 0.9999125 1.9998253 V 19.999714 H 0.9999125 Z m 5.0000505,0 v 0.999913 H 5.9999632 6.9998757 V 19.999714 H 5.9999632 Z m 15.9995765,0.999913 h 1.000401 0.999911 0.999913 v 1.000401 0.999911 0.999913 H 22.999939 22.000028 20.999627 V 22.999939 22.000028 Z M 0,22.000028 v 0.999911 0.999913 0.999914 0.999911 1.0004 0.999914 0.999911 h 0.9999125 0.9999128 0.9999125 0.9999125 1.0004002 0.9999127 0.9999125 v -0.999911 -0.999914 -1.0004 -0.999911 -0.999914 -0.999913 -0.999911 H 5.9999632 5.0000505 3.9996503 2.9997378 1.9998253 0.9999125 Z m 22.000028,0 v 0.999911 h 0.999911 V 22.000028 Z M 0.9999125,22.999939 h 0.9999128 0.9999125 0.9999125 1.0004002 0.9999127 v 0.999913 0.999914 0.999911 1.0004 0.999914 H 5.0000505 3.9996503 2.9997378 1.9998253 0.9999125 v -0.999914 -1.0004 -0.999911 -0.999914 z m 17.9998895,0 h 0.999912 v 0.999913 0.999914 H 18.999802 V 23.999852 Z M 1.9998253,23.999852 v 0.999914 0.999911 1.0004 h 0.9999125 0.9999125 1.0004002 v -1.0004 -0.999911 -0.999914 H 3.9996503 2.9997378 Z m 18.9998017,4.000139 v 0.999911 h 1.000401 0.999911 v -0.999911 h -0.999911 z m 7.000364,0 v 0.999911 h 0.999911 v -0.999911 z"
     id="rect4"
     inkscape:connector-curvature="0" />
</svg>
